<?xml version="1.0" encoding="UTF-8"?>
<!-- Generator: Adobe Illustrator 23.0.1, SVG Export Plug-In . SVG Version: 6.00 Build 0)  -->
<svg xmlns="http://www.w3.org/2000/svg" xmlns:xlink="http://www.w3.org/1999/xlink" id="Layer_1" x="0px" y="0px" viewBox="0 0 275.352 312.607" style="enable-background:new 0 0 275.352 312.607;" xml:space="preserve">
<style type="text/css">
	.st0{fill:#003E7E;}
	.st1{fill:#FFFFFF;}
	.st2{fill:#FFD200;}
</style>
<path class="st0" d="M274.193,24.423C190.838,42.52,137.713,0,137.713,0S84.589,42.52,1.233,24.423  c0,68.082-1.957,191.842,136.517,287.317C276.224,216.265,274.193,92.505,274.193,24.423z"></path>
<path class="st1" d="M137.547,289.875l-1.327-0.852c-0.782-0.502-78.507-51.219-103.923-141.778  C15.916,88.881,18.452,46.784,18.48,46.366l0.168-2.546l2.539,0.257c0.342,0.033,34.52,3.398,61.196-2.217  c30.198-6.359,53.721-18.999,53.955-19.125l1.164-0.632l1.168,0.623c0.239,0.127,24.204,12.781,54.375,19.134  c26.694,5.619,60.852,2.25,61.197,2.217l2.539-0.258l0.168,2.547c0.027,0.419,2.563,42.516-13.818,100.879  c-25.418,90.563-103.468,141.28-104.254,141.78L137.547,289.875z M23.298,49.21c-0.255,9.805-0.129,47.28,13.742,96.704  C60.134,228.2,127.25,276.908,137.552,283.983c10.334-7.072,77.756-55.837,100.835-138.069  c13.887-49.477,14.002-86.906,13.744-96.704c-8.633,0.697-36.695,2.401-60.102-2.529c-27.071-5.7-49.275-16.373-54.509-19.008  c-5.184,2.65-27.07,13.312-54.122,19.008C59.995,51.609,31.936,49.907,23.298,49.21z"></path>
<g>
	<g>
		<g>
			<path class="st2" d="M139.564,83.233c-1.223,0.044-3.015,0.306-5.373,0.787c-2.358,0.48-4.28,1.2-5.763,2.161     c-1.485,1.005-2.513,3.08-3.079,6.222c-0.569,3.145-0.852,6.988-0.852,11.528v40.416c0,5.153-1.07,9.629-3.206,13.429     c-2.136,3.801-4.949,6.921-8.439,9.367c-3.445,2.358-7.076,4.05-10.893,5.076c-3.817,1.026-7.469,1.539-10.956,1.539     c-5.583,0-10.556-0.731-14.916-2.194c-4.362-1.462-8.026-3.438-10.99-5.929c-2.923-2.488-5.126-5.336-6.607-8.546     c-1.483-3.21-2.224-6.561-2.224-10.056V92.076c0-1.527-0.257-2.806-0.766-3.832c-0.509-1.026-1.541-1.975-3.093-2.85     c-1.108-0.611-2.526-1.102-4.257-1.474c-1.73-0.371-3.149-0.599-4.257-0.687v-4.655h38.709v4.655     c-1.217,0.044-2.747,0.241-4.592,0.59c-1.845,0.35-3.2,0.678-4.069,0.982c-1.478,0.524-2.465,1.399-2.963,2.62     c-0.5,1.223-0.748,2.555-0.748,3.994v51.347c0,2.488,0.274,5.097,0.821,7.826c0.547,2.729,1.631,5.271,3.252,7.631     c1.707,2.4,4.029,4.368,6.965,5.895c2.934,1.527,6.963,2.289,12.089,2.289c4.818,0,8.858-0.762,12.122-2.289     c3.261-1.527,5.836-3.537,7.721-6.029c1.795-2.356,3.064-4.823,3.809-7.399c0.745-2.576,1.118-5.174,1.118-7.794v-38.116     c0-4.846-0.35-8.81-1.047-11.888s-1.723-5.097-3.074-6.058c-1.526-1.091-3.608-1.941-6.246-2.553     c-2.638-0.612-4.655-0.961-6.048-1.049v-4.655h37.852V83.233z"></path>
		</g>
		<g>
			<path class="st2" d="M218.879,124.664h-4.41c-0.387-1.541-1.083-3.371-2.09-5.491c-1.007-2.121-2.132-4.123-3.374-6.008     c-1.286-1.97-2.691-3.694-4.213-5.172c-1.522-1.478-2.99-2.322-4.404-2.536c-1.328-0.172-3.001-0.301-5.015-0.387     c-2.015-0.084-3.88-0.128-5.595-0.128h-3.728v72.802c0,1.413,0.297,2.706,0.894,3.882c0.597,1.175,1.64,2.086,3.133,2.726     c0.768,0.298,2.377,0.704,4.827,1.217c2.45,0.513,4.358,0.792,5.723,0.835v4.532H157.63v-4.532     c1.198-0.084,3.026-0.257,5.487-0.513c2.461-0.256,4.163-0.574,5.105-0.961c1.411-0.555,2.448-1.355,3.112-2.404     c0.662-1.049,0.995-2.45,0.995-4.203v-73.38h-3.713c-1.325,0-2.967,0.033-4.93,0.098c-1.964,0.065-3.842,0.203-5.633,0.417     c-1.409,0.172-2.871,1.018-4.385,2.538c-1.516,1.52-2.913,3.244-4.194,5.17c-1.28,1.927-2.412,3.971-3.393,6.134     c-0.982,2.163-1.665,3.952-2.048,5.365H139.5V99.92h79.378V124.664z"></path>
		</g>
	</g>
	<g>
		<g>
			<path class="st2" d="M115.281,217.42c0,0,6.861-0.68,12.886,3.286c5.191,3.422,8.051,10.43,8.051,10.43     s-8.566,0.821-14.066-2.807C116.12,224.355,115.281,217.42,115.281,217.42L115.281,217.42L115.281,217.42z"></path>
			<path class="st2" d="M160.145,217.42c0,0-6.851-0.676-12.885,3.29c-5.181,3.435-8.042,10.426-8.042,10.426     s8.556,0.821,14.056-2.798C159.312,224.355,160.145,217.42,160.145,217.42L160.145,217.42L160.145,217.42z"></path>
		</g>
		<path class="st2" d="M137.713,191.61c0,0,6.422,8.984,6.422,17.818c0,8.304-6.422,16.992-6.422,16.992s-6.422-8.689-6.422-16.992    C131.291,200.594,137.713,191.61,137.713,191.61z"></path>
	</g>
</g>
</svg>
